<svg width="31" height="42" viewBox="0 0 31 42" fill="none" xmlns="http://www.w3.org/2000/svg">
<g clip-path="url(#clip0_260_110)">
<path d="M31 42H30.1588V35.0603C30.1588 30.8475 28.3139 26.8406 25.1006 24.0692L25.6501 23.4403C29.0485 26.3676 31 30.6026 31 35.0603V42ZM0.841172 35.0603C0.841172 30.8475 2.68614 26.8406 5.89942 24.0692L5.34986 23.4403C1.95152 26.3676 0 30.6026 0 35.0603V42H0.841172V35.0603ZM15.5 0.834769C9.51085 0.834769 4.64327 5.67086 4.64327 11.6089C4.64327 17.5468 9.51646 22.3829 15.5 22.3829C21.4835 22.3829 26.3567 17.5468 26.3567 11.6089C26.3567 5.67086 21.4891 0.834769 15.5 0.834769ZM15.5 0C21.9602 0 27.1979 5.19783 27.1979 11.6089C27.1979 18.0199 21.9602 23.2177 15.5 23.2177C9.0398 23.2177 3.8021 18.0199 3.8021 11.6089C3.8021 5.19783 9.0398 0 15.5 0Z" fill="#E5FF02"/>
</g>
<defs>
<clipPath id="clip0_260_110">
<rect width="31" height="42" fill="white"/>
</clipPath>
</defs>
</svg>
