<svg width="28" height="28" viewBox="0 0 28 28" fill="none" xmlns="http://www.w3.org/2000/svg">
<g clip-path="url(#clip0_156_889)">
<path d="M27.9845 16.6929L18.9784 16.1341L25.571 22.23L21.9856 25.7921L16.0139 19.0288L16.3631 28L11.3071 27.9845L11.8659 18.9784L5.76996 25.571L2.20787 21.9856L8.97118 16.0139L0 16.3631L0.0155211 11.3071L9.02162 11.8659L2.42905 5.76996L6.01441 2.20787L11.9861 8.97118L11.6369 0L16.6929 0.0155211L16.1341 9.02162L22.23 2.42905L25.7921 6.01441L19.0288 11.9861L28 11.6369L27.9845 16.6929ZM17.0227 14L14 10.9773L10.9773 14L14 17.0227L17.0227 14Z" fill="#0049FF"/>
</g>
<defs>
<clipPath id="clip0_156_889">
<rect width="28" height="28" fill="white"/>
</clipPath>
</defs>
</svg>
