<svg width="49" height="49" viewBox="0 0 49 49" fill="none" xmlns="http://www.w3.org/2000/svg">
<path d="M24.1027 24.3168L38.5933 21.684C42.5943 20.9584 46.6713 23.2042 47.8667 27.0877C48.3435 28.6287 48.3643 30.3355 47.8184 32.0216C47.2724 33.7077 46.2497 35.069 44.9575 36.0364C41.7029 38.4757 37.0869 37.9022 34.2813 34.9584L24.1096 24.3099L24.1027 24.3168Z" fill="#0049FF"/>
<path d="M24.2063 24.8213L26.1826 10.227C26.7285 6.1984 30.1214 3.01281 34.1915 3.08191C35.8016 3.10955 37.4324 3.60709 38.8697 4.65052C40.3001 5.69396 41.2813 7.08981 41.8065 8.61005C43.1263 12.459 41.1431 16.6673 37.4807 18.4363L24.2132 24.8213H24.2063Z" fill="#0049FF"/>
<path d="M24.7108 24.8836L11.4433 18.4986C7.7809 16.7365 5.80459 12.5213 7.11752 8.67234C7.64269 7.14519 8.62394 5.74934 10.0543 4.71282C11.4847 3.66938 13.1155 3.17185 14.7325 3.14421C18.7957 3.08202 22.1955 6.26069 22.7414 10.2893L24.7177 24.8836H24.7108Z" fill="#0049FF"/>
<path d="M24.9319 24.4137L14.7602 35.0622C11.9477 37.9991 7.33173 38.5795 4.08395 36.1402C2.79175 35.1728 1.76904 33.8046 1.22314 32.1254C0.677238 30.4393 0.704879 28.7325 1.17477 27.1915C2.37023 23.308 6.44723 21.0553 10.4482 21.7878L24.9388 24.4206L24.9319 24.4137Z" fill="#0049FF"/>
<path d="M24.5518 24.0681L31.5311 37.0316C33.459 40.6111 32.5815 45.1856 29.2577 47.5212C27.9378 48.4472 26.3208 49 24.5518 49C22.7828 49 21.1659 48.4472 19.846 47.5212C16.5222 45.1856 15.6446 40.6111 17.5726 37.0316L24.5518 24.0681Z" fill="#0049FF"/>
</svg>
