<svg width="25" height="25" viewBox="0 0 25 25" fill="currentColor" xmlns="http://www.w3.org/2000/svg">
<path d="M12.2969 12.4065L19.69 11.0632C21.7314 10.693 23.8115 11.8389 24.4214 13.8202C24.6647 14.6065 24.6752 15.4773 24.3967 16.3375C24.1182 17.1978 23.5964 17.8923 22.9371 18.3859C21.2766 19.6304 18.9215 19.3378 17.4901 17.8359L12.3004 12.403L12.2969 12.4065Z" fill="currentColor"/>
<path d="M12.3506 12.6639L13.3589 5.21781C13.6374 3.16238 15.3685 1.53708 17.4451 1.57234C18.2665 1.58644 19.0986 1.84029 19.8319 2.37265C20.5617 2.90502 21.0623 3.61719 21.3303 4.39282C22.0037 6.35657 20.9918 8.50366 19.1233 9.40621L12.3541 12.6639H12.3506Z" fill="currentColor"/>
<path d="M12.6076 12.6955L5.83842 9.43785C3.96985 8.53882 2.96153 6.38821 3.63139 4.42445C3.89934 3.64529 4.39997 2.93312 5.12977 2.40428C5.85957 1.87192 6.69161 1.61808 7.5166 1.60397C9.58965 1.57224 11.3242 3.19402 11.6028 5.24944L12.6111 12.6955H12.6076Z" fill="currentColor"/>
<path d="M12.72 12.4557L7.53034 17.8887C6.09543 19.3871 3.74033 19.6832 2.0833 18.4387C1.42401 17.9451 0.902223 17.247 0.6237 16.3903C0.345178 15.5301 0.359281 14.6592 0.599021 13.873C1.20895 11.8916 3.28905 10.7423 5.33037 11.116L12.7235 12.4593L12.72 12.4557Z" fill="currentColor"/>
<path d="M12.5267 12.2798L16.0875 18.8938C17.0712 20.7201 16.6234 23.054 14.9276 24.2457C14.2542 24.7181 13.4292 25.0001 12.5267 25.0001C11.6241 25.0001 10.7991 24.7181 10.1257 24.2457C8.42994 23.054 7.98219 20.7201 8.96583 18.8938L12.5267 12.2798Z" fill="currentColor"/>
</svg>
