<svg width="24" height="24" viewBox="0 0 24 24" fill="none" xmlns="http://www.w3.org/2000/svg">
<g clip-path="url(#clip0_0_1181)">
<path d="M23.9867 14.3082L16.2672 13.8293L21.918 19.0543L18.8448 22.1075L13.7262 16.3104L14.0255 24L9.6918 23.9867L10.1707 16.2672L4.94568 21.918L1.89246 18.8448L7.68958 13.7262L0 14.0255L0.0133038 9.6918L7.73282 10.1707L2.08204 4.94568L5.15521 1.89246L10.2738 7.68958L9.9745 0L14.3082 0.0133038L13.8293 7.73282L19.0543 2.08204L22.1075 5.15521L16.3104 10.2738L24 9.9745L23.9867 14.3082ZM14.5909 12L12 9.40909L9.40909 12L12 14.5909L14.5909 12Z" fill="black"/>
</g>
<defs>
<clipPath id="clip0_0_1181">
<rect width="24" height="24" fill="white"/>
</clipPath>
</defs>
</svg>
