<svg width="20" height="19" viewBox="0 0 20 19" fill="none" xmlns="http://www.w3.org/2000/svg">
<g clip-path="url(#clip0_0_1209)">
<path d="M4.50693 8.77785C6.99604 8.77785 9.01386 6.81286 9.01386 4.38893C9.01386 1.96499 6.99604 0 4.50693 0C2.01782 0 0 1.96499 0 4.38893C0 6.81286 2.01782 8.77785 4.50693 8.77785Z" fill="black"/>
<path d="M15.4933 8.77785C17.9824 8.77785 20.0002 6.81286 20.0002 4.38893C20.0002 1.96499 17.9824 0 15.4933 0C13.0042 0 10.9863 1.96499 10.9863 4.38893C10.9863 6.81286 13.0042 8.77785 15.4933 8.77785Z" fill="black"/>
<path d="M4.50693 19C6.99604 19 9.01386 17.035 9.01386 14.6111C9.01386 12.1872 6.99604 10.2222 4.50693 10.2222C2.01782 10.2222 0 12.1872 0 14.6111C0 17.035 2.01782 19 4.50693 19Z" fill="black"/>
<path d="M15.4933 19C17.9824 19 20.0002 17.035 20.0002 14.6111C20.0002 12.1872 17.9824 10.2222 15.4933 10.2222C13.0042 10.2222 10.9863 12.1872 10.9863 14.6111C10.9863 17.035 13.0042 19 15.4933 19Z" fill="black"/>
</g>
<defs>
<clipPath id="clip0_0_1209">
<rect width="20" height="19" fill="white"/>
</clipPath>
</defs>
</svg>
