<svg width="29" height="16" viewBox="0 0 29 16" fill="none" xmlns="http://www.w3.org/2000/svg">
<g clip-path="url(#clip0_0_441)">
<path d="M14.5001 15.9054C10.2339 15.9054 6.75977 12.4206 6.75977 8.1365C6.75977 3.85241 10.2339 0.36377 14.5001 0.36377C18.7664 0.36377 22.2405 3.84862 22.2405 8.1365C22.2405 12.4244 18.7702 15.9054 14.5001 15.9054ZM14.5001 0.822103C10.4866 0.822103 7.21996 4.10241 7.21996 8.13271C7.21996 12.163 10.4866 15.4433 14.5001 15.4433C18.5137 15.4433 21.7803 12.163 21.7803 8.13271C21.7803 4.10241 18.5137 0.822103 14.5001 0.822103Z" fill="black" stroke="black" stroke-width="0.5" stroke-miterlimit="10"/>
<path d="M14.5004 15.9053C9.10249 15.9053 4.03277 13.1667 0.226713 8.18942L0.121094 8.04927L0.226713 7.90912C4.03277 2.87124 9.10249 0.0947266 14.5004 0.0947266C19.8983 0.0947266 24.968 2.87124 28.7778 7.90912L28.8835 8.04927L28.7778 8.18942C24.968 13.1667 19.8983 15.9053 14.5042 15.9053H14.5004ZM0.694455 8.04927C4.40244 12.822 9.29864 15.447 14.5004 15.447C19.7021 15.447 24.5983 12.822 28.3063 8.04927C24.5983 3.21215 19.7021 0.55306 14.5004 0.55306C9.29864 0.55306 4.40244 3.21215 0.694455 8.04927Z" fill="black" stroke="black" stroke-width="0.5" stroke-miterlimit="10"/>
</g>
<defs>
<clipPath id="clip0_0_441">
<rect width="29" height="16" fill="white"/>
</clipPath>
</defs>
</svg>
