<svg width="45" height="38" viewBox="0 0 45 38" fill="none" xmlns="http://www.w3.org/2000/svg">
<g clip-path="url(#clip0_260_112)">
<mask id="path-1-inside-1_260_112" fill="white">
<path d="M22.499 38.0002L21.9112 37.613C18.0962 35.072 -0.870731 21.877 0.0290287 10.9265C0.478909 5.49965 3.59208 1.42801 8.16286 0.296658C12.2058 -0.701591 18.0482 0.653607 22.499 7.3812C26.9559 0.653607 32.7983 -0.707641 36.8412 0.296658C41.412 1.43406 44.5252 5.5057 44.969 10.9265C45.8688 21.883 26.9019 35.0781 23.0929 37.613L22.499 38.0002ZM10.6282 0.732257C9.81842 0.732257 9.04463 0.829057 8.33082 1.00451C4.07795 2.06326 1.17472 5.88685 0.754835 10.9809C-0.114933 21.5261 18.5581 34.5033 22.3071 36.9959L22.499 37.123L22.691 36.9959C26.44 34.5033 45.113 21.5261 44.2432 10.987C43.8234 5.8929 40.9201 2.06931 36.6613 1.01056C32.7683 0.0425581 27.0878 1.44011 22.805 8.2524L22.499 8.74245L22.1931 8.2524C18.6901 2.68035 14.2572 0.732257 10.6282 0.732257Z"/>
</mask>
<path d="M22.499 38.0002L21.9112 37.613C18.0962 35.072 -0.870731 21.877 0.0290287 10.9265C0.478909 5.49965 3.59208 1.42801 8.16286 0.296658C12.2058 -0.701591 18.0482 0.653607 22.499 7.3812C26.9559 0.653607 32.7983 -0.707641 36.8412 0.296658C41.412 1.43406 44.5252 5.5057 44.969 10.9265C45.8688 21.883 26.9019 35.0781 23.0929 37.613L22.499 38.0002ZM10.6282 0.732257C9.81842 0.732257 9.04463 0.829057 8.33082 1.00451C4.07795 2.06326 1.17472 5.88685 0.754835 10.9809C-0.114933 21.5261 18.5581 34.5033 22.3071 36.9959L22.499 37.123L22.691 36.9959C26.44 34.5033 45.113 21.5261 44.2432 10.987C43.8234 5.8929 40.9201 2.06931 36.6613 1.01056C32.7683 0.0425581 27.0878 1.44011 22.805 8.2524L22.499 8.74245L22.1931 8.2524C18.6901 2.68035 14.2572 0.732257 10.6282 0.732257Z" fill="#E5FF02"/>
<path d="M22.499 38.0002L20.2987 41.3407L22.4879 42.7826L24.6838 41.3509L22.499 38.0002ZM21.9112 37.613L19.6938 40.9421L19.7023 40.9478L19.7109 40.9535L21.9112 37.613ZM0.0290287 10.9265L-3.9573 10.596L-3.95754 10.5989L0.0290287 10.9265ZM8.16286 0.296658L7.20401 -3.58672L7.20179 -3.58617L8.16286 0.296658ZM22.499 7.3812L19.163 9.58823L22.4968 14.6274L25.8337 9.5903L22.499 7.3812ZM36.8412 0.296658L37.8071 -3.58497L37.8055 -3.58536L36.8412 0.296658ZM44.969 10.9265L40.9824 11.2529L40.9825 11.2539L44.969 10.9265ZM23.0929 37.613L25.2776 40.9637L25.2934 40.9534L25.309 40.943L23.0929 37.613ZM8.33082 1.00451L7.37606 -2.87989L7.36451 -2.87702L8.33082 1.00451ZM0.754835 10.9809L4.7413 11.3097L4.74132 11.3095L0.754835 10.9809ZM22.3071 36.9959L20.0924 40.3269L20.0993 40.3314L22.3071 36.9959ZM22.499 37.123L20.2913 40.4585L22.499 41.9198L24.7068 40.4585L22.499 37.123ZM22.691 36.9959L24.8987 40.3315L24.9056 40.3269L22.691 36.9959ZM44.2432 10.987L40.2568 11.3156L40.2568 11.316L44.2432 10.987ZM36.6613 1.01056L35.696 4.89235L35.6962 4.8924L36.6613 1.01056ZM22.805 8.2524L19.4186 6.1234L19.4118 6.1342L22.805 8.2524ZM22.499 8.74245L19.1059 10.8606L22.499 16.2961L25.8922 10.8606L22.499 8.74245ZM22.1931 8.2524L25.5863 6.1342L25.5795 6.12343L22.1931 8.2524ZM24.6993 34.6597L24.1115 34.2725L19.7109 40.9535L20.2987 41.3407L24.6993 34.6597ZM24.1286 34.2839C22.2957 33.063 16.8395 29.2896 11.9964 24.5612C9.57192 22.1941 7.42179 19.7033 5.95059 17.2818C4.45307 14.8169 3.88834 12.8028 4.01559 11.2541L-3.95754 10.5989C-4.28016 14.5254 -2.81143 18.2672 -0.886496 21.4356C1.06477 24.6473 3.72611 27.6673 6.40776 30.2854C11.7769 35.5274 17.7117 39.622 19.6938 40.9421L24.1286 34.2839ZM4.01535 11.257C4.35287 7.18555 6.54083 4.81885 9.12393 4.17949L7.20179 -3.58617C0.643326 -1.96283 -3.39505 3.81375 -3.9573 10.596L4.01535 11.257ZM9.12171 4.18003C11.373 3.62415 15.5575 4.13834 19.163 9.58823L25.8351 5.17417C20.5389 -2.83112 13.0385 -5.02733 7.20401 -3.58672L9.12171 4.18003ZM25.8337 9.5903C29.4481 4.13426 33.6332 3.62133 35.8769 4.17868L37.8055 -3.58536C31.9634 -5.03661 24.4636 -2.82704 19.1644 5.1721L25.8337 9.5903ZM35.8753 4.17828C38.4645 4.82259 40.65 7.19347 40.9824 11.2529L48.9557 10.6C48.4004 3.81793 44.3595 -1.95447 37.8071 -3.58497L35.8753 4.17828ZM40.9825 11.2539C41.1098 12.8047 40.5446 14.8202 39.0473 17.2857C37.5762 19.7079 35.4262 22.199 33.0022 24.5659C28.16 29.2942 22.7054 33.066 20.8767 34.283L25.309 40.943C27.2893 39.625 33.2228 35.5319 38.5913 30.2898C41.2726 27.6715 43.9338 24.6511 45.885 21.4385C47.8099 18.2691 49.2782 14.5265 48.9556 10.5991L40.9825 11.2539ZM20.9082 34.2623L20.3143 34.6495L24.6838 41.3509L25.2776 40.9637L20.9082 34.2623ZM10.6282 -3.26774C9.50161 -3.26774 8.40707 -3.13329 7.37606 -2.87988L9.28557 4.88889C9.68218 4.79141 10.1352 4.73226 10.6282 4.73226V-3.26774ZM7.36451 -2.87702C1.11026 -1.32003 -2.70167 4.22273 -3.23165 10.6524L4.74132 11.3095C5.05112 7.55097 7.04563 5.44654 9.29712 4.88603L7.36451 -2.87702ZM-3.23163 10.6521C-3.54894 14.4993 -2.07468 18.1619 -0.177479 21.2419C1.75008 24.3711 4.37458 27.3209 7.01486 29.8802C12.3024 35.0056 18.143 39.0308 20.0924 40.3269L24.5217 33.6649C22.7222 32.4685 17.3518 28.7587 12.583 24.136C10.1951 21.8213 8.08012 19.3938 6.63396 17.0461C5.15743 14.6491 4.62373 12.7352 4.7413 11.3097L-3.23163 10.6521ZM20.0993 40.3314L20.2913 40.4585L24.7068 33.7874L24.5149 33.6604L20.0993 40.3314ZM24.7068 40.4585L24.8987 40.3315L20.4832 33.6604L20.2913 33.7874L24.7068 40.4585ZM24.9056 40.3269C26.855 39.0308 32.6956 35.0057 37.983 29.8812C40.6232 27.3223 43.2477 24.3732 45.1753 21.2449C47.0724 18.1661 48.5471 14.5042 48.2297 10.658L40.2568 11.316C40.3743 12.7393 39.841 14.6518 38.3644 17.0482C36.9183 19.3952 34.8033 21.8222 32.4153 24.1366C27.6464 28.7586 22.2759 32.4684 20.4763 33.6649L24.9056 40.3269ZM48.2297 10.6584C47.6996 4.22756 43.8866 -1.31499 37.6263 -2.87129L35.6962 4.8924C37.9537 5.4536 39.9471 7.55824 40.2568 11.3156L48.2297 10.6584ZM37.6265 -2.87124C31.848 -4.30809 24.5013 -1.96104 19.4186 6.12341L26.1913 10.3814C29.6744 4.84125 33.6886 4.39321 35.696 4.89235L37.6265 -2.87124ZM19.4118 6.1342L19.1059 6.62425L25.8922 10.8606L26.1981 10.3706L19.4118 6.1342ZM25.8922 6.62426L25.5862 6.13421L18.8 10.3706L19.1059 10.8606L25.8922 6.62426ZM25.5795 6.12343C21.443 -0.456094 15.8083 -3.26774 10.6282 -3.26774V4.73226C12.7062 4.73226 15.9371 5.8168 18.8068 10.3814L25.5795 6.12343Z" fill="#E5FF02" mask="url(#path-1-inside-1_260_112)"/>
</g>
<defs>
<clipPath id="clip0_260_112">
<rect width="45" height="38" fill="white"/>
</clipPath>
</defs>
</svg>
