<svg width="40" height="34" viewBox="0 0 40 34" fill="none" xmlns="http://www.w3.org/2000/svg">
<g clip-path="url(#clip0_73_379)">
<mask id="path-1-inside-1_73_379" fill="white">
<path d="M19.9997 34.0003L19.4771 33.6538C16.086 31.3803 -0.773468 19.5742 0.0263187 9.77644C0.426212 4.92084 3.19347 1.27779 7.25639 0.265533C10.8501 -0.627636 16.0434 0.584909 19.9997 6.60433C23.9613 0.584909 29.1546 -0.633049 32.7483 0.265533C36.8112 1.28321 39.5784 4.92626 39.973 9.77644C40.7728 19.5797 23.9133 31.3857 20.5275 33.6538L19.9997 34.0003ZM9.44781 0.65528C8.728 0.65528 8.04018 0.741891 7.40568 0.898872C3.62536 1.84617 1.04471 5.26728 0.67148 9.82516C-0.101647 19.2603 16.4966 30.8715 19.829 33.1017L19.9997 33.2154L20.1703 33.1017C23.5027 30.8715 40.101 19.2603 39.3278 9.83057C38.9546 5.2727 36.374 1.85159 32.5883 0.904285C29.1279 0.0381811 24.0786 1.28862 20.2716 7.38383L19.9997 7.82229L19.7277 7.38383C16.6139 2.39831 12.6736 0.65528 9.44781 0.65528Z"/>
</mask>
<path d="M19.9997 34.0003L19.4771 33.6538C16.086 31.3803 -0.773468 19.5742 0.0263187 9.77644C0.426212 4.92084 3.19347 1.27779 7.25639 0.265533C10.8501 -0.627636 16.0434 0.584909 19.9997 6.60433C23.9613 0.584909 29.1546 -0.633049 32.7483 0.265533C36.8112 1.28321 39.5784 4.92626 39.973 9.77644C40.7728 19.5797 23.9133 31.3857 20.5275 33.6538L19.9997 34.0003ZM9.44781 0.65528C8.728 0.65528 8.04018 0.741891 7.40568 0.898872C3.62536 1.84617 1.04471 5.26728 0.67148 9.82516C-0.101647 19.2603 16.4966 30.8715 19.829 33.1017L19.9997 33.2154L20.1703 33.1017C23.5027 30.8715 40.101 19.2603 39.3278 9.83057C38.9546 5.2727 36.374 1.85159 32.5883 0.904285C29.1279 0.0381811 24.0786 1.28862 20.2716 7.38383L19.9997 7.82229L19.7277 7.38383C16.6139 2.39831 12.6736 0.65528 9.44781 0.65528Z" fill="#E5FF02"/>
<path d="M19.9997 34.0003L17.7893 37.3341L19.9885 38.7922L22.1944 37.3444L19.9997 34.0003ZM19.4771 33.6538L17.2497 36.9762L17.2582 36.982L17.2668 36.9877L19.4771 33.6538ZM0.0263187 9.77644L-3.96019 9.44812L-3.96042 9.451L0.0263187 9.77644ZM7.25639 0.265533L6.29159 -3.61637L6.28937 -3.61582L7.25639 0.265533ZM19.9997 6.60433L16.657 8.8013L19.9974 13.8837L23.341 8.80336L19.9997 6.60433ZM32.7483 0.265533L33.7201 -3.6146L33.7186 -3.615L32.7483 0.265533ZM39.973 9.77644L35.9862 10.1008L35.9862 10.1017L39.973 9.77644ZM20.5275 33.6538L22.7223 36.9979L22.7381 36.9876L22.7537 36.9771L20.5275 33.6538ZM7.40568 0.898872L6.445 -2.98407L6.4334 -2.98116L7.40568 0.898872ZM0.67148 9.82516L4.65812 10.1518L4.65814 10.1516L0.67148 9.82516ZM19.829 33.1017L17.6043 36.426L17.6112 36.4305L19.829 33.1017ZM19.9997 33.2154L17.7818 36.5442L19.9996 38.0218L22.2175 36.5442L19.9997 33.2154ZM20.1703 33.1017L22.3881 36.4306L22.395 36.4259L20.1703 33.1017ZM39.3278 9.83057L35.3412 10.157L35.3412 10.1574L39.3278 9.83057ZM32.5883 0.904285L31.6171 4.78459L31.6173 4.78464L32.5883 0.904285ZM20.2716 7.38383L16.879 5.26483L16.8723 5.27562L20.2716 7.38383ZM19.9997 7.82229L16.6003 9.93049L19.9996 15.4117L23.399 9.9305L19.9997 7.82229ZM19.7277 7.38383L23.1271 5.27562L23.1204 5.26486L19.7277 7.38383ZM22.21 30.6665L21.6875 30.32L17.2668 36.9877L17.7893 37.3341L22.21 30.6665ZM21.7046 30.3314C20.0839 29.2448 15.2602 25.8864 10.9838 21.6838C8.84287 19.5798 6.95857 17.3794 5.67579 15.254C4.3673 13.0861 3.9095 11.3705 4.01306 10.1019L-3.96042 9.451C-4.25676 13.0813 -2.90703 16.5156 -1.17334 19.388C0.586074 22.303 2.97863 25.0333 5.37645 27.3897C10.1776 32.108 15.4793 35.7893 17.2497 36.9762L21.7046 30.3314ZM4.01282 10.1048C4.30242 6.58839 6.15839 4.66138 8.22341 4.14688L6.28937 -3.61582C0.228563 -2.10579 -3.45 3.25329 -3.96018 9.44812L4.01282 10.1048ZM8.22119 4.14744C10.0075 3.70348 13.5398 4.05846 16.657 8.8013L23.3423 4.40737C18.547 -2.88864 11.6927 -4.95875 6.29159 -3.61637L8.22119 4.14744ZM23.341 8.80336C26.4665 4.05433 29.9994 3.70134 31.778 4.14606L33.7186 -3.615C28.3098 -4.96743 21.4561 -2.88452 16.6584 4.4053L23.341 8.80336ZM31.7764 4.14567C33.8475 4.66445 35.701 6.5957 35.9862 10.1008L43.9598 9.45211C43.4558 3.25681 39.7748 -2.09804 33.7201 -3.6146L31.7764 4.14567ZM35.9862 10.1017C36.0899 11.3722 35.6317 13.0892 34.3233 15.2576C33.0406 17.3835 31.1565 19.5842 29.0159 21.6881C24.7403 25.8905 19.9181 29.2475 18.3013 30.3306L22.7537 36.9771C24.5227 35.7921 29.8231 32.112 34.6237 27.3935C37.0213 25.037 39.4137 22.3063 41.173 19.3905C42.9067 16.5172 44.256 13.0823 43.9598 9.45118L35.9862 10.1017ZM18.3327 30.3098L17.8049 30.6562L22.1944 37.3444L22.7223 36.9979L18.3327 30.3098ZM9.44781 -3.34472C8.40906 -3.34472 7.39848 -3.21995 6.44501 -2.98405L8.36636 4.7818C8.68188 4.70373 9.04694 4.65528 9.44781 4.65528V-3.34472ZM6.4334 -2.98116C0.641636 -1.52982 -2.83391 3.6215 -3.31518 9.4987L4.65814 10.1516C4.92333 6.91307 6.60908 5.22217 8.37797 4.77891L6.4334 -2.98116ZM-3.31516 9.49849C-3.60699 13.06 -2.25055 16.4246 -0.541776 19.2168C1.19666 22.0576 3.55641 24.7247 5.91721 27.0282C10.6454 31.6416 15.863 35.2606 17.6043 36.4259L22.0538 29.7775C20.4627 28.7126 15.7149 25.4108 11.5041 21.3023C9.39546 19.2448 7.54233 17.1007 6.2819 15.041C4.9918 12.9329 4.56339 11.3079 4.65812 10.1518L-3.31516 9.49849ZM17.6112 36.4305L17.7818 36.5442L22.2175 29.8865L22.0469 29.7729L17.6112 36.4305ZM22.2175 36.5442L22.3881 36.4306L17.9525 29.7728L17.7818 29.8865L22.2175 36.5442ZM22.395 36.4259C24.1364 35.2606 29.3538 31.6417 34.0819 27.0291C36.4426 24.7261 38.8024 22.0595 40.5408 19.2196C42.2495 16.4283 43.6064 13.0645 43.3145 9.50371L35.3412 10.1574C35.4358 11.3115 35.0079 12.9352 33.7177 15.0428C32.4573 17.1018 30.6042 19.2455 28.4954 21.3028C24.2846 25.4107 19.5367 28.7126 17.9456 29.7775L22.395 36.4259ZM43.3145 9.50411C42.8331 3.6257 39.3564 -1.52543 33.5593 -2.97607L31.6173 4.78464C33.3915 5.2286 35.0761 6.9197 35.3412 10.157L43.3145 9.50411ZM33.5595 -2.97602C28.197 -4.31821 21.479 -2.1001 16.879 5.26484L23.6642 9.50281C26.6781 4.67734 30.0588 4.39457 31.6171 4.78459L33.5595 -2.97602ZM16.8723 5.27562L16.6003 5.71408L23.399 9.9305L23.6709 9.49203L16.8723 5.27562ZM23.399 5.71409L23.1271 5.27563L16.3284 9.49202L16.6003 9.93049L23.399 5.71409ZM23.1204 5.26486C19.3787 -0.725791 14.2371 -3.34472 9.44781 -3.34472V4.65528C11.1101 4.65528 13.849 5.52242 16.3351 9.50279L23.1204 5.26486Z" fill="#E5FF02" mask="url(#path-1-inside-1_73_379)"/>
</g>
<defs>
<clipPath id="clip0_73_379">
<rect width="40" height="34" fill="white"/>
</clipPath>
</defs>
</svg>
