<svg width="31" height="38" viewBox="0 0 31 38" fill="none" xmlns="http://www.w3.org/2000/svg">
<g clip-path="url(#clip0_134_32)">
<path d="M28.6106 37.9999H2.38938C1.07212 37.9999 0 36.9331 0 35.6198V10.8039C0 9.49312 1.07212 8.42627 2.38938 8.42627H28.6081C29.9254 8.42627 30.9975 9.49312 30.9975 10.8039V35.6198C30.9975 36.9306 29.9254 37.9999 28.6081 37.9999H28.6106ZM2.38938 9.41181C1.61685 9.41181 0.990415 10.0376 0.990415 10.8039V35.6198C0.990415 36.3885 1.61933 37.0144 2.38938 37.0144H28.6081C29.3807 37.0144 30.0071 36.3885 30.0071 35.6198V10.8039C30.0071 10.0352 29.3782 9.41181 28.6081 9.41181H2.38938Z" fill="#E5FF02"/>
<path d="M24.3396 8.93639L23.3492 8.9019C23.3492 8.86741 23.3492 8.83291 23.3492 8.79842C23.3492 4.4916 19.8283 0.985541 15.5001 0.985541C11.172 0.985541 7.64862 4.48914 7.64862 8.79842C7.64862 8.83291 7.64862 8.86741 7.64862 8.9019L6.6582 8.93639C6.6582 8.88958 6.6582 8.84277 6.6582 8.79842C6.66068 3.94709 10.6273 0 15.5001 0C20.373 0 24.3396 3.94709 24.3396 8.79842C24.3396 8.84523 24.3396 8.89205 24.3396 8.93639Z" fill="#E5FF02"/>
</g>
<defs>
<clipPath id="clip0_134_32">
<rect width="31" height="38" fill="white"/>
</clipPath>
</defs>
</svg>
