<svg width="64" height="64" viewBox="0 0 64 64" fill="none" xmlns="http://www.w3.org/2000/svg">
<path d="M32.5943 35.47C32.5943 35.7709 32.5766 36.0808 32.5943 36.3817C32.8605 39.9225 33.1443 43.4633 33.4105 47.0041C33.7565 51.6603 34.0847 56.3253 34.413 60.9814C34.5283 62.5837 34.0049 63.4512 32.7274 63.8761C31.2636 64.3629 29.6667 63.3449 29.6134 61.8047C29.5779 60.6097 29.6578 59.4058 29.7465 58.2019C30.128 53.174 30.5272 48.146 30.9264 43.1093C31.095 40.9228 31.2636 38.7452 31.4144 36.5588C31.4321 36.2667 31.3789 35.9657 31.3611 35.6736L31.1305 35.6382C30.953 36.0896 30.7579 36.5322 30.6071 36.9925C29.5425 40.2855 28.5045 43.5784 27.4221 46.8625C26.3575 50.12 25.2486 53.3687 24.1662 56.6263C23.8291 57.6354 23.5097 58.6534 23.1992 59.6714C22.8976 60.6451 22.4008 61.4329 21.3184 61.6365C20.2716 61.8312 19.3401 61.5745 18.6924 60.6716C18.0626 59.7953 18.1335 58.8393 18.586 57.9364C21.487 52.1826 24.4235 46.4553 27.3334 40.7104C28.3093 38.7895 29.2497 36.8509 30.199 34.9212C30.2522 34.8149 30.2699 34.691 30.1635 34.4785C29.1344 35.647 28.0964 36.8066 27.085 37.9839C22.4629 43.366 17.8496 48.7657 13.2186 54.1477C11.7548 55.8561 9.86516 55.6968 8.84492 53.8113C8.34811 52.8907 8.64087 51.8019 9.66998 50.899C10.9386 49.7925 12.2339 48.7126 13.5114 47.6238C18.2577 43.5607 22.9952 39.4976 27.7415 35.4257C28.3182 34.93 28.8948 34.4254 29.4715 33.9297C29.436 33.8678 29.4094 33.7969 29.3739 33.735C28.9569 33.8943 28.5311 34.0271 28.1319 34.2307C20.7063 37.9751 13.2896 41.7195 5.87292 45.4727C4.51556 46.1543 3.06061 45.6144 2.43073 44.1715C1.85407 42.8614 2.49283 41.4185 3.88568 40.9582C6.97301 39.9402 10.0692 38.9488 13.1565 37.9308C15.9866 36.9925 18.8166 36.0277 21.6467 35.0982C24.1219 34.2838 26.6059 33.496 29.0989 32.5311C28.7263 32.5134 28.3625 32.4514 27.9899 32.478C23.4299 32.8409 18.8699 33.2393 14.3099 33.5933C11.0273 33.8501 7.74484 34.0625 4.46233 34.2927C3.77035 34.3458 3.06949 34.5051 2.38637 34.4697C0.860448 34.39 -0.0976891 33.2481 -0.0089727 31.7344C0.0708721 30.4332 1.27741 29.4152 2.73236 29.5037C4.76397 29.6277 6.7867 29.7958 8.81831 29.964C11.4621 30.1853 14.0969 30.4243 16.7318 30.6368C20.4135 30.9289 24.0953 31.2033 27.777 31.4777C28.2117 31.5131 28.6553 31.4777 29.1077 31.3007C27.1915 30.6722 25.2752 30.0437 23.3678 29.4152C20.4845 28.468 17.6012 27.512 14.7091 26.5649C11.8968 25.6442 9.07558 24.759 6.26328 23.8296C5.23417 23.4844 4.1607 23.1745 3.23805 22.6257C2.02263 21.8999 1.87181 20.5721 2.63478 19.3328C3.28241 18.2971 4.68412 17.9164 5.81082 18.4918C10.9475 21.0855 16.0842 23.688 21.2209 26.2816C23.7404 27.5563 26.2688 28.8133 28.7972 30.0614C28.9658 30.1499 29.1787 30.1588 29.4537 30.0614C28.2827 29.0434 27.1116 28.0166 25.9317 26.9986C20.9725 22.7408 16.0043 18.483 11.0362 14.2163C10.4684 13.7295 9.86516 13.2869 9.35061 12.7469C8.31262 11.6492 8.33924 10.3922 9.35948 9.41853C10.4596 8.37399 11.8435 8.37399 12.8904 9.52475C14.3542 11.1535 15.7559 12.8354 17.1843 14.4907C21.3273 19.3062 25.4704 24.1217 29.6134 28.9283C29.782 29.1231 30.0038 29.2824 30.332 29.3886C29.9062 28.4946 29.4892 27.5917 29.0456 26.7065C27.2447 23.148 25.426 19.5895 23.6251 16.031C21.9661 12.7557 20.316 9.47164 18.657 6.18754C18.1513 5.19612 17.9916 4.18699 18.7102 3.24868C19.3933 2.34577 20.3514 2.10677 21.4338 2.34577C22.3121 2.54052 22.8089 3.19557 23.075 3.96569C24.0154 6.73637 24.8848 9.5336 25.7898 12.3131C26.5705 14.6855 27.3778 17.0578 28.1585 19.4301C28.9392 21.8025 29.6933 24.1925 30.4651 26.5649C30.6603 27.1491 30.8821 27.7333 31.0861 28.3176C31.166 28.3087 31.2458 28.291 31.3257 28.2821C31.3523 28.0431 31.4144 27.7953 31.3966 27.5651C31.1216 23.8119 30.8288 20.0586 30.5538 16.3054C30.2167 11.8086 29.8796 7.3029 29.5779 2.80608C29.4804 1.32779 30.0393 0.522261 31.299 0.0885126C32.6298 -0.371792 34.2444 0.548817 34.342 1.94743C34.4307 3.1159 34.3598 4.29321 34.2799 5.46168C33.9783 9.63982 33.65 13.818 33.3218 17.9961C33.0734 21.2182 32.8161 24.4315 32.5854 27.6537C32.5677 27.9458 32.6387 28.2379 32.6653 28.53C32.7274 28.53 32.7983 28.53 32.8605 28.53C33.1976 27.5297 33.5347 26.5383 33.8629 25.538C34.6791 23.0595 35.4953 20.5898 36.3026 18.1112C37.0745 15.73 37.8286 13.3488 38.6093 10.9765C39.4255 8.50677 40.2062 6.01936 41.1377 3.58505C41.6256 2.31922 43.0451 1.89432 44.3137 2.452C45.4759 2.96541 46.159 4.47025 45.6179 5.51479C44.7573 7.17012 43.9855 8.86085 43.1427 10.5162C41.5103 13.7472 39.8602 16.9604 38.2189 20.1914C36.8438 22.9001 35.4865 25.6088 34.1291 28.3264C34.0049 28.5831 33.9428 28.8752 33.8541 29.1408C33.925 29.1762 33.996 29.2116 34.067 29.2382C34.8477 28.3441 35.6373 27.4589 36.4091 26.5649C41.1909 20.9969 45.9639 15.4202 50.7368 9.84342C52.174 8.17039 54.037 8.23236 55.1016 10.0116C55.6517 10.9322 55.3501 12.1715 54.3121 13.0656C52.8128 14.3579 51.3046 15.6326 49.8053 16.9162C44.9436 21.0855 40.082 25.2548 35.2114 29.4241C34.9985 29.6099 34.7324 29.7427 34.4928 29.8932C34.5815 30.0083 34.6614 30.1234 34.7501 30.2296C35.4421 29.9021 36.1518 29.5834 36.8349 29.2293C41.5901 26.8304 46.3542 24.4315 51.1094 22.0326C53.4426 20.8553 55.767 19.6691 58.1003 18.4918C59.5108 17.7837 60.9569 18.3236 61.6134 19.8019C62.1723 21.0589 61.4892 22.5283 60.0786 22.9975C56.5921 24.1571 53.0878 25.2813 49.5924 26.4321C46.3276 27.5032 43.0628 28.6008 39.7981 29.6719C38.1834 30.203 36.5688 30.7164 34.963 31.4158C35.584 31.4158 36.2051 31.4512 36.8261 31.4158C40.1618 31.1679 43.4975 30.9023 46.8244 30.6368C51.4643 30.265 56.1041 29.8932 60.744 29.4949C62.3764 29.3532 63.7337 30.1145 63.9378 31.3626C64.2483 33.2481 63.0329 34.5848 61.0634 34.4343C58.5793 34.2484 56.1041 33.9917 53.629 33.8058C48.6697 33.4252 43.7016 33.0799 38.7423 32.717C37.8374 32.6462 36.9325 32.5223 36.0276 32.4514C35.6816 32.4249 35.3268 32.478 34.963 32.6639C37.2608 33.4252 39.5585 34.1776 41.8474 34.9389C43.8968 35.6116 45.9461 36.2844 47.9955 36.9571C49.8674 37.5679 51.7482 38.1698 53.6201 38.7895C55.8202 39.5065 58.0382 40.2058 60.2294 40.9671C61.5158 41.4185 62.1368 42.9234 61.6134 44.1184C61.0102 45.4904 59.5197 46.1278 58.2333 45.4904C55.6339 44.1981 53.0523 42.8703 50.4618 41.5602C46.9397 39.7809 43.4177 38.0105 39.8957 36.249C38.352 35.47 36.7995 34.6998 35.2469 33.9386C35.0784 33.8589 34.8921 33.8058 34.7146 33.7438C34.6791 33.8058 34.6348 33.8766 34.5993 33.9386C35.655 34.8592 36.7019 35.7798 37.7665 36.6916C42.6636 40.8963 47.5696 45.101 52.4756 49.3057C53.0612 49.8102 53.6644 50.2971 54.2411 50.8194C55.6073 52.0498 55.7493 53.4661 54.6403 54.5549C53.487 55.6791 52.0143 55.5286 50.8078 54.1389C48.6254 51.616 46.4607 49.0755 44.2871 46.5438C41.0401 42.7552 37.7842 38.9665 34.5372 35.1779C34.3864 35.0008 34.2533 34.8149 34.1114 34.629C34.0315 34.6733 33.9605 34.7176 33.8807 34.7707C33.9339 35.0008 33.9428 35.2575 34.0492 35.4611C35.6639 38.6478 37.2874 41.8169 38.902 44.9947C41.0667 49.2614 43.2314 53.5281 45.3872 57.8036C45.884 58.7862 46.0348 59.7953 45.2541 60.7247C44.5266 61.5834 43.5863 61.8489 42.5128 61.5657C41.5458 61.3178 41.0933 60.5389 40.8094 59.6979C39.3811 55.4135 37.9794 51.1115 36.5777 46.8094C35.5042 43.4987 34.4485 40.1704 33.3839 36.8597C33.2242 36.364 33.0201 35.8772 32.8427 35.3903C32.754 35.408 32.6653 35.4169 32.5766 35.4346L32.5943 35.47Z" fill="#FE6033"/>
</svg>
