<svg width="73" height="73" viewBox="0 0 73 73" fill="none" xmlns="http://www.w3.org/2000/svg">
<g clip-path="url(#clip0_0_108)">
<path d="M72.12 43.02L48.91 41.58L65.9 57.29L56.66 66.47L41.27 49.04L42.17 72.16L29.14 72.12L30.58 48.91L14.87 65.9L5.69 56.66L23.12 41.27L0 42.17L0.04 29.14L23.25 30.58L6.26 14.87L15.5 5.69L30.89 23.12L29.99 0L43.02 0.04L41.58 23.25L57.29 6.26L66.47 15.5L49.04 30.89L72.16 29.99L72.12 43.02ZM43.87 36.08L36.08 28.29L28.29 36.08L36.08 43.87L43.87 36.08Z" fill="#FE6033"/>
</g>
<defs>
<clipPath id="clip0_0_108">
<rect width="72.16" height="72.16" fill="white"/>
</clipPath>
</defs>
</svg>
