<svg width="48" height="48" viewBox="0 0 48 48" fill="none" xmlns="http://www.w3.org/2000/svg">
<g clip-path="url(#clip0_0_197)">
<path d="M24.446 26.6024C24.446 26.8281 24.4327 27.0605 24.446 27.2862C24.6456 29.9418 24.8585 32.5974 25.0581 35.253C25.3176 38.7451 25.5638 42.2439 25.81 45.736C25.8965 46.9377 25.5039 47.5883 24.5458 47.907C23.4479 48.2721 22.2502 47.5086 22.2103 46.3534C22.1837 45.4572 22.2436 44.5543 22.3101 43.6514C22.5962 39.8804 22.8957 36.1094 23.1951 32.3319C23.3215 30.692 23.4479 29.0588 23.561 27.419C23.5743 27.1999 23.5344 26.9742 23.5211 26.7551L23.3481 26.7285C23.215 27.0671 23.0686 27.3991 22.9555 27.7443C22.1571 30.214 21.3786 32.6837 20.5668 35.1468C19.7684 37.5899 18.9367 40.0265 18.1249 42.4696C17.8721 43.2265 17.6325 43.9899 17.3997 44.7534C17.1734 45.4837 16.8008 46.0746 15.9891 46.2273C15.2039 46.3733 14.5053 46.1808 14.0196 45.5036C13.5472 44.8464 13.6004 44.1294 13.9397 43.4522C16.1155 39.1368 18.3179 34.8414 20.5003 30.5327C21.2322 29.092 21.9375 27.6381 22.6495 26.1908C22.6894 26.1111 22.7027 26.0182 22.6228 25.8588C21.851 26.7352 21.0725 27.6049 20.314 28.4879C16.8474 32.5244 13.3875 36.5742 9.91422 40.6107C8.81636 41.892 7.39912 41.7725 6.63394 40.3584C6.26133 39.668 6.4809 38.8514 7.25273 38.1742C8.20422 37.3443 9.17566 36.5343 10.1338 35.7177C13.6935 32.6704 17.2466 29.6231 20.8064 26.5692C21.2389 26.1974 21.6714 25.819 22.1039 25.4472C22.0772 25.4007 22.0573 25.3476 22.0307 25.3011C21.7179 25.4207 21.3986 25.5202 21.0991 25.6729C15.53 28.4812 9.96745 31.2895 4.40494 34.1045C3.38692 34.6157 2.2957 34.2107 1.82329 33.1285C1.3908 32.146 1.86987 31.0638 2.9145 30.7186C5.23 29.9551 7.55215 29.2115 9.86765 28.448C11.9902 27.7443 14.1127 27.0207 16.2353 26.3236C18.0917 25.7128 19.9547 25.1219 21.8244 24.3982C21.5449 24.385 21.2721 24.3385 20.9927 24.3584C17.5727 24.6306 14.1526 24.9294 10.7326 25.1949C8.27075 25.3875 5.80887 25.5468 3.34699 25.7194C2.828 25.7592 2.30236 25.8787 1.79002 25.8522C0.64558 25.7924 -0.0730227 24.936 -0.00648538 23.8007C0.0533982 22.8248 0.958305 22.0613 2.04952 22.1277C3.57322 22.2207 5.09027 22.3468 6.61397 22.4729C8.59679 22.6389 10.5729 22.8182 12.5491 22.9775C15.3104 23.1966 18.0717 23.4024 20.833 23.6082C21.159 23.6348 21.4917 23.6082 21.8311 23.4754C20.3939 23.0041 18.9566 22.5327 17.5261 22.0613C15.3636 21.3509 13.2012 20.6339 11.0321 19.9236C8.92282 19.2331 6.80693 18.5692 4.6977 17.8721C3.92587 17.6132 3.12077 17.3808 2.42878 16.9692C1.51722 16.4248 1.40411 15.4289 1.97633 14.4995C2.46205 13.7227 3.51334 13.4372 4.35836 13.8688C8.21087 15.814 12.0634 17.7659 15.9159 19.7111C17.8055 20.6671 19.7019 21.6099 21.5982 22.546C21.7246 22.6124 21.8843 22.619 22.0906 22.546C21.2123 21.7825 20.334 21.0124 19.449 20.2489C15.7296 17.0555 12.0035 13.8621 8.27741 10.6621C7.85157 10.297 7.39912 9.96505 7.0132 9.56007C6.23471 8.73683 6.25467 7.79409 7.01985 7.0638C7.84491 6.2804 8.8829 6.2804 9.66804 7.14347C10.7659 8.36505 11.8172 9.62646 12.8884 10.868C15.9957 14.4796 19.103 18.0912 22.2103 21.6962C22.3367 21.8422 22.5031 21.9617 22.7493 22.0414C22.4299 21.3709 22.1172 20.6937 21.7845 20.0298C20.4338 17.3609 19.0698 14.692 17.719 12.0231C16.4748 9.56671 15.2372 7.10364 13.993 4.64057C13.6137 3.897 13.4939 3.14015 14.0329 2.43642C14.5452 1.75924 15.2638 1.57999 16.0756 1.75924C16.7343 1.9053 17.1069 2.39658 17.3065 2.97418C18.0118 5.05219 18.6639 7.15011 19.3426 9.23476C19.9281 11.014 20.5336 12.7933 21.1191 14.5725C21.7046 16.3518 22.2702 18.1443 22.8491 19.9236C22.9955 20.3617 23.1618 20.7999 23.3148 21.2381C23.3747 21.2314 23.4346 21.2182 23.4945 21.2115C23.5144 21.0323 23.561 20.8464 23.5477 20.6738C23.3415 17.8588 23.1219 15.0439 22.9156 12.2289C22.6628 8.85633 22.4099 5.47708 22.1837 2.10447C22.1105 0.995754 22.5297 0.391604 23.4745 0.0662929C24.4726 -0.278935 25.6836 0.411521 25.7568 1.46048C25.8233 2.33683 25.7701 3.21982 25.7102 4.09617C25.484 7.22978 25.2378 10.3634 24.9916 13.497C24.8053 15.9136 24.6123 18.3236 24.4393 20.7402C24.426 20.9592 24.4792 21.1783 24.4992 21.3974C24.5458 21.3974 24.599 21.3974 24.6456 21.3974C24.8984 20.6472 25.1513 19.9036 25.3975 19.1534C26.0096 17.2945 26.6217 15.4422 27.2272 13.5833C27.8061 11.7974 28.3717 10.0115 28.9572 8.23227C29.5693 6.37999 30.1549 4.51443 30.8535 2.6887C31.2195 1.73932 32.2841 1.42065 33.2355 1.83891C34.1072 2.22397 34.6195 3.3526 34.2136 4.136C33.5682 5.3775 32.9894 6.64555 32.3573 7.88704C31.133 10.3103 29.8954 12.7202 28.6644 15.1435C27.6331 17.175 26.6151 19.2065 25.5971 21.2447C25.5039 21.4372 25.4573 21.6563 25.3908 21.8555C25.444 21.8821 25.4973 21.9086 25.5505 21.9285C26.136 21.258 26.7282 20.5941 27.3071 19.9236C30.8934 15.7476 34.4731 11.565 38.0528 7.38248C39.1307 6.1277 40.528 6.17418 41.3265 7.50862C41.739 8.19907 41.5128 9.12853 40.7343 9.79907C39.6098 10.7684 38.4787 11.7244 37.3542 12.687C33.708 15.814 30.0617 18.941 26.4088 22.068C26.2491 22.2074 26.0495 22.307 25.8699 22.4198C25.9364 22.5061 25.9963 22.5924 26.0628 22.6721C26.5818 22.4265 27.1141 22.1875 27.6265 21.9219C31.1929 20.1227 34.7659 18.3236 38.3323 16.5244C40.0822 15.6414 41.8255 14.7518 43.5754 13.8688C44.6334 13.3377 45.7179 13.7426 46.2103 14.8514C46.6295 15.7941 46.1172 16.8962 45.0592 17.248C42.4443 18.1177 39.8161 18.9609 37.1945 19.824C34.7459 20.6273 32.2974 21.4505 29.8488 22.2538C28.6378 22.6522 27.4268 23.0372 26.2225 23.5617C26.6883 23.5617 27.154 23.5883 27.6198 23.5617C30.1216 23.3758 32.6234 23.1767 35.1185 22.9775C38.5984 22.6987 42.0784 22.4198 45.5583 22.1211C46.7825 22.0148 47.8006 22.5858 47.9536 23.5219C48.1865 24.936 47.2749 25.9385 45.7978 25.8256C43.9347 25.6862 42.0784 25.4937 40.222 25.3543C36.5025 25.0688 32.7764 24.8099 29.057 24.5377C28.3783 24.4846 27.6996 24.3916 27.021 24.3385C26.7615 24.3186 26.4953 24.3584 26.2225 24.4978C27.9458 25.0688 29.6691 25.6331 31.3858 26.2041C32.9228 26.7086 34.4598 27.2132 35.9968 27.7177C37.4008 28.1758 38.8114 28.6273 40.2153 29.092C41.8654 29.6298 43.5289 30.1543 45.1723 30.7252C46.1371 31.0638 46.6029 32.1924 46.2103 33.0887C45.7579 34.1177 44.64 34.5958 43.6752 34.1177C41.7257 33.1485 39.7895 32.1526 37.8466 31.17C35.2051 29.8356 32.5635 28.5078 29.922 27.1866C28.7642 26.6024 27.5998 26.0248 26.4354 25.4538C26.309 25.3941 26.1693 25.3543 26.0362 25.3078C26.0096 25.3543 25.9763 25.4074 25.9497 25.4538C26.7415 26.1443 27.5266 26.8348 28.3251 27.5186C31.998 30.6721 35.6775 33.8256 39.357 36.9792C39.7961 37.3576 40.2486 37.7227 40.6811 38.1144C41.7057 39.0372 41.8122 40.0995 40.9805 40.9161C40.1155 41.7592 39.011 41.6464 38.1061 40.6041C36.4693 38.7119 34.8457 36.8065 33.2156 34.9078C30.7803 32.0663 28.3384 29.2248 25.9031 26.3833C25.79 26.2505 25.6902 26.1111 25.5838 25.9717C25.5239 26.0049 25.4706 26.0381 25.4108 26.0779C25.4507 26.2505 25.4573 26.4431 25.5372 26.5958C26.7482 28.9858 27.9658 31.3626 29.1768 33.746C30.8003 36.946 32.4238 40.146 34.0406 43.3526C34.4133 44.0895 34.5264 44.8464 33.9408 45.5435C33.3952 46.1875 32.6899 46.3866 31.8848 46.1742C31.1596 45.9883 30.8202 45.4041 30.6073 44.7733C29.5361 41.5601 28.4848 38.3335 27.4335 35.107C26.6284 32.624 25.8366 30.1277 25.0382 27.6447C24.9184 27.2729 24.7654 26.9078 24.6323 26.5426C24.5657 26.5559 24.4992 26.5626 24.4327 26.5758L24.446 26.6024Z" fill="#0049FF"/>
</g>
<defs>
<clipPath id="clip0_0_197">
<rect width="48" height="48" fill="white"/>
</clipPath>
</defs>
</svg>
