<svg width="26" height="26" viewBox="0 0 26 26" fill="none" xmlns="http://www.w3.org/2000/svg">
<g clip-path="url(#clip0_0_1207)">
<path d="M13.2415 14.4096C13.2415 14.5319 13.2343 14.6578 13.2415 14.78C13.3496 16.2185 13.465 17.6569 13.5731 19.0954C13.7137 20.9869 13.847 22.8821 13.9804 24.7737C14.0272 25.4246 13.8146 25.777 13.2956 25.9496C12.7009 26.1474 12.0522 25.7338 12.0305 25.1081C12.0161 24.6226 12.0486 24.1336 12.0846 23.6445C12.2396 21.6019 12.4018 19.5593 12.564 17.5131C12.6324 16.6248 12.7009 15.7402 12.7622 14.852C12.7694 14.7333 12.7478 14.611 12.7406 14.4923L12.6468 14.478C12.5748 14.6614 12.4955 14.8412 12.4342 15.0282C12.0017 16.3659 11.58 17.7037 11.1403 19.0378C10.7078 20.3612 10.2573 21.681 9.81763 23.0044C9.68067 23.4143 9.55092 23.8279 9.42478 24.2414C9.30224 24.637 9.10041 24.9571 8.66071 25.0398C8.23543 25.1189 7.857 25.0146 7.5939 24.6478C7.338 24.2918 7.36684 23.9034 7.55065 23.5366C8.72919 21.1991 9.92215 18.8724 11.1043 16.5385C11.5007 15.7582 11.8828 14.9706 12.2684 14.1867C12.29 14.1435 12.2973 14.0932 12.254 14.0069C11.8359 14.4816 11.4142 14.9526 11.0034 15.4309C9.12564 17.6174 7.25151 19.811 5.37016 21.9975C4.77549 22.6915 4.00781 22.6268 3.59334 21.8608C3.39151 21.4868 3.51045 21.0445 3.92852 20.6777C4.44391 20.2282 4.97011 19.7894 5.4891 19.3471C7.41729 17.6965 9.34189 16.0459 11.2701 14.3916C11.5043 14.1903 11.7386 13.9853 11.9729 13.7839C11.9585 13.7587 11.9477 13.73 11.9332 13.7048C11.7638 13.7695 11.5908 13.8235 11.4287 13.9062C8.41203 15.4273 5.399 16.9485 2.38597 18.4733C1.83454 18.7502 1.24347 18.5308 0.987575 17.9446C0.753308 17.4124 1.0128 16.8262 1.57865 16.6392C2.83288 16.2257 4.09071 15.8229 5.34494 15.4094C6.49464 15.0282 7.64435 14.6362 8.79406 14.2586C9.79961 13.9277 10.8088 13.6077 11.8215 13.2157C11.6701 13.2085 11.5224 13.1833 11.371 13.1941C9.51849 13.3416 7.66598 13.5034 5.81347 13.6472C4.47995 13.7515 3.14643 13.8378 1.81291 13.9313C1.53179 13.9529 1.24707 14.0176 0.969554 14.0033C0.349649 13.9709 -0.0395946 13.507 -0.00355361 12.8921C0.0288833 12.3634 0.519041 11.9499 1.11011 11.9858C1.93545 12.0362 2.75719 12.1045 3.58253 12.1728C4.65655 12.2627 5.72697 12.3598 6.79739 12.4461C8.29309 12.5648 9.78879 12.6763 11.2845 12.7878C11.4611 12.8022 11.6413 12.7878 11.8251 12.7159C11.0466 12.4605 10.2681 12.2052 9.49326 11.9499C8.32192 11.5651 7.15059 11.1767 5.97565 10.7919C4.83315 10.4179 3.68705 10.0583 2.54455 9.68072C2.12647 9.54047 1.69037 9.41461 1.31555 9.19165C0.821786 8.89677 0.760516 8.35735 1.07047 7.85389C1.33357 7.43314 1.90302 7.27851 2.36074 7.51226C4.44751 8.56592 6.53429 9.62318 8.62107 10.6768C9.64463 11.1947 10.6718 11.7053 11.699 12.2124C11.7674 12.2484 11.8539 12.252 11.9657 12.2124C11.4899 11.7988 11.0142 11.3817 10.5348 10.9681C8.52015 9.2384 6.50185 7.50866 4.48355 5.77533C4.25289 5.57754 4.00781 5.39773 3.79877 5.17837C3.37709 4.73245 3.38791 4.2218 3.80238 3.82623C4.24929 3.40188 4.81153 3.40188 5.23681 3.86938C5.83149 4.53107 6.40094 5.21433 6.9812 5.88681C8.66431 7.8431 10.3474 9.79939 12.0305 11.7521C12.099 11.8312 12.1891 11.8959 12.3225 11.9391C12.1495 11.5759 11.9801 11.2091 11.7999 10.8495C11.0683 9.40382 10.3294 7.95818 9.59778 6.51253C8.92381 5.18197 8.25345 3.8478 7.57948 2.51364C7.37405 2.11087 7.30917 1.70092 7.6011 1.31973C7.87862 0.952921 8.26786 0.855826 8.70756 0.952921C9.06437 1.03204 9.2662 1.29815 9.37432 1.61101C9.75636 2.7366 10.1096 3.87298 10.4772 5.00216C10.7943 5.96592 11.1223 6.92968 11.4395 7.89345C11.7566 8.85721 12.063 9.82816 12.3765 10.7919C12.4558 11.0293 12.5459 11.2666 12.6288 11.504C12.6613 11.5004 12.6937 11.4932 12.7261 11.4896C12.737 11.3925 12.7622 11.2918 12.755 11.1983C12.6432 9.67353 12.5243 8.14877 12.4126 6.62401C12.2756 4.79718 12.1387 2.96675 12.0161 1.13992C11.9765 0.539366 12.2035 0.212119 12.7153 0.0359087C13.2559 -0.15109 13.9119 0.222907 13.9515 0.791095C13.9876 1.26578 13.9587 1.74407 13.9263 2.21876C13.8038 3.91613 13.6704 5.6135 13.5371 7.31087C13.4361 8.61986 13.3316 9.92526 13.2379 11.2342C13.2307 11.3529 13.2595 11.4716 13.2704 11.5903C13.2956 11.5903 13.3244 11.5903 13.3496 11.5903C13.4866 11.1839 13.6236 10.7811 13.7569 10.3748C14.0885 9.36786 14.4201 8.36454 14.748 7.35762C15.0616 6.39026 15.3679 5.42291 15.6851 4.45914C16.0167 3.45583 16.3338 2.44531 16.7123 1.45638C16.9105 0.942133 17.4872 0.769519 18.0025 0.996075C18.4747 1.20465 18.7522 1.81599 18.5323 2.24033C18.1828 2.91281 17.8692 3.59967 17.5268 4.27215C16.8636 5.58473 16.1933 6.89013 15.5265 8.20271C14.9679 9.30313 14.4165 10.4035 13.865 11.5076C13.8146 11.6118 13.7893 11.7305 13.7533 11.8384C13.7821 11.8528 13.811 11.8672 13.8398 11.878C14.157 11.5147 14.4777 11.1551 14.7913 10.7919C16.7339 8.52996 18.6729 6.2644 20.6119 3.99884C21.1958 3.31917 21.9526 3.34435 22.3851 4.06717C22.6086 4.44116 22.486 4.94462 22.0644 5.30783C21.4553 5.83287 20.8426 6.35071 20.2335 6.87215C18.2584 8.56592 16.2834 10.2597 14.3047 11.9535C14.2182 12.029 14.1101 12.0829 14.0128 12.1441C14.0488 12.1908 14.0813 12.2376 14.1173 12.2807C14.3984 12.1477 14.6868 12.0182 14.9643 11.8744C16.8961 10.8998 18.8315 9.92526 20.7633 8.95071C21.7112 8.47242 22.6554 7.99054 23.6033 7.51226C24.1764 7.22457 24.7638 7.44393 25.0305 8.04448C25.2576 8.55513 24.9801 9.15209 24.407 9.34268C22.9906 9.81378 21.567 10.2705 20.147 10.738C18.8207 11.1731 17.4944 11.619 16.1681 12.0542C15.5121 12.2699 14.8562 12.4785 14.2038 12.7626C14.4561 12.7626 14.7084 12.777 14.9607 12.7626C16.3158 12.6619 17.671 12.554 19.0225 12.4461C20.9075 12.2951 22.7924 12.1441 24.6773 11.9822C25.3405 11.9247 25.8919 12.234 25.9748 12.741C26.101 13.507 25.6072 14.05 24.8071 13.9889C23.7979 13.9134 22.7924 13.8091 21.7869 13.7336C19.7722 13.5789 17.7539 13.4387 15.7392 13.2912C15.3715 13.2625 15.0039 13.2121 14.6363 13.1833C14.4958 13.1726 14.3516 13.1941 14.2038 13.2697C15.1373 13.5789 16.0707 13.8846 17.0006 14.1939C17.8332 14.4672 18.6657 14.7405 19.4982 15.0138C20.2587 15.2619 21.0228 15.5064 21.7832 15.7582C22.6771 16.0495 23.5781 16.3336 24.4683 16.6428C24.9909 16.8262 25.2432 17.4376 25.0305 17.923C24.7855 18.4804 24.18 18.7394 23.6574 18.4804C22.6014 17.9554 21.5526 17.416 20.5002 16.8838C19.0694 16.1609 17.6385 15.4417 16.2077 14.7261C15.5806 14.4096 14.9499 14.0968 14.3192 13.7875C14.2507 13.7551 14.175 13.7336 14.1029 13.7084C14.0885 13.7336 14.0705 13.7623 14.0561 13.7875C14.4849 14.1615 14.9102 14.5355 15.3427 14.9059C17.3322 16.6141 19.3253 18.3222 21.3183 20.0304C21.5562 20.2354 21.8013 20.4331 22.0355 20.6453C22.5906 21.1452 22.6482 21.7206 22.1977 22.1629C21.7292 22.6196 21.1309 22.5585 20.6407 21.9939C19.7541 20.969 18.8747 19.9369 17.9917 18.9084C16.6726 17.3692 15.3499 15.8301 14.0308 14.291C13.9696 14.219 13.9155 14.1435 13.8578 14.068C13.8254 14.086 13.7966 14.104 13.7641 14.1255C13.7857 14.219 13.7893 14.3233 13.8326 14.406C14.4885 15.7006 15.1481 16.9881 15.804 18.2791C16.6834 20.0124 17.5628 21.7457 18.4386 23.4827C18.6405 23.8818 18.7017 24.2918 18.3846 24.6694C18.089 25.0182 17.707 25.1261 17.2709 25.011C16.8781 24.9103 16.6943 24.5939 16.5789 24.2522C15.9987 22.5117 15.4292 20.764 14.8598 19.0163C14.4237 17.6713 13.9948 16.3192 13.5623 14.9742C13.4974 14.7728 13.4145 14.5751 13.3424 14.3773C13.3064 14.3845 13.2704 14.3881 13.2343 14.3952L13.2415 14.4096Z" fill="black"/>
</g>
<defs>
<clipPath id="clip0_0_1207">
<rect width="26" height="26" fill="white"/>
</clipPath>
</defs>
</svg>
