<svg width="21" height="27" viewBox="0 0 21 27" fill="none" xmlns="http://www.w3.org/2000/svg">
<g clip-path="url(#clip0_158_18)">
<path d="M8.71993 17.916C3.96744 17.916 0.10498 13.9231 0.10498 9.01436C0.10498 4.10567 3.96744 0.108398 8.71993 0.108398C13.4724 0.108398 17.3349 4.10133 17.3349 9.01436C17.3349 13.9274 13.4724 17.916 8.71993 17.916ZM8.71993 0.633555C4.24872 0.633555 0.612977 4.39212 0.612977 9.01436C0.612977 13.6366 4.24872 17.3908 8.71574 17.3908C13.1827 17.3908 16.8185 13.6323 16.8185 9.01436C16.8185 4.39645 13.1869 0.633555 8.71993 0.633555Z" fill="white" stroke="white" stroke-width="0.5" stroke-miterlimit="10"/>
<path d="M13.611 16.3364L20.6557 26.7528" stroke="white" stroke-miterlimit="10"/>
</g>
<defs>
<clipPath id="clip0_158_18">
<rect width="21" height="27" fill="white"/>
</clipPath>
</defs>
</svg>
